<svg xmlns="http://www.w3.org/2000/svg" viewBox="0 0 500 500"><g id="freepik--background-complete--inject-40"><rect y="382.4" width="500" height="0.25" style="fill:#ebebeb"></rect><rect x="52.46" y="391.92" width="16.06" height="0.25" style="fill:#ebebeb"></rect><rect x="171.14" y="389.21" width="53.53" height="0.25" style="fill:#ebebeb"></rect><rect x="69.52" y="401.21" width="36.25" height="0.25" style="fill:#ebebeb"></rect><rect x="379.14" y="389.08" width="43.19" height="0.25" style="fill:#ebebeb"></rect><rect x="431.24" y="389.08" width="6.33" height="0.25" style="fill:#ebebeb"></rect><rect x="317" y="395.31" width="53.89" height="0.25" style="fill:#ebebeb"></rect><path d="M237,337.8H43.91a5.71,5.71,0,0,1-5.7-5.71V60.66A5.71,5.71,0,0,1,43.91,55H237a5.71,5.71,0,0,1,5.71,5.71V332.09A5.71,5.71,0,0,1,237,337.8ZM43.91,55.2a5.46,5.46,0,0,0-5.45,5.46V332.09a5.46,5.46,0,0,0,5.45,5.46H237a5.47,5.47,0,0,0,5.46-5.46V60.66A5.47,5.47,0,0,0,237,55.2Z" style="fill:#ebebeb"></path><path d="M453.31,337.8H260.21c-3.14,0-5.71-2.56-5.71,63.38V129.74c0-72.23,2.57-74.79,5.71-74.79h193.1A5.71,5.71,0,0,1,459,60.66V332.09A5.71,5.71,0,0,1,453.31,337.8ZM260.21,55.2c-3,0-5.46,2.45-5.46,74.54V401.18c0-66.08,2.45-63.63,5.46-63.63h193.1a5.47,5.47,0,0,0,5.46-5.46V60.66a5.47,5.47,0,0,0-5.46-5.46Z" style="fill:#ebebeb"></path><rect x="299.83" y="80.06" width="134.71" height="236.15" transform="translate(734.37 396.27) rotate(180)" style="fill:#e6e6e6"></rect><path d="M285.39,75.46H443.26a1.34,1.34,0,0,1,1.34,1.34h0a1.34,1.34,0,0,1-1.34,1.33H285.39a1.34,1.34,0,0,1-1.34-1.33h0A1.34,1.34,0,0,1,285.39,75.46Z" style="fill:#e6e6e6"></path><rect x="294.11" y="80.06" width="137.76" height="236.15" transform="translate(725.98 396.27) rotate(180)" style="fill:#f0f0f0"></rect><rect x="252.92" y="137.26" width="220.14" height="121.75" transform="translate(561.12 -164.86) rotate(90)" style="fill:#fafafa"></rect><polygon points="396.23 308.2 349.26 88.06 327.09 88.06 374.06 308.2 396.23 308.2" style="fill:#fff"></polygon><polygon points="369.29 308.2 322.32 88.06 313.68 88.06 360.65 308.2 369.29 308.2" style="fill:#fff"></polygon><rect x="192.55" y="197.63" width="220.14" height="1.02" transform="translate(500.76 -104.49) rotate(90)" style="fill:#e6e6e6"></rect><g style="opacity:0.4"><rect x="423.77" y="73.07" width="13.77" height="284.56" transform="translate(861.32 430.69) rotate(180)" style="fill:#f0f0f0"></rect><rect x="418.41" y="73.07" width="10.73" height="284.56" transform="translate(847.55 430.69) rotate(180)" style="fill:#e6e6e6"></rect><rect x="410" y="73.07" width="13.77" height="284.56" transform="translate(833.77 430.69) rotate(180)" style="fill:#f0f0f0"></rect><rect x="404.63" y="73.07" width="10.73" height="284.56" transform="translate(820 430.69) rotate(180)" style="fill:#e6e6e6"></rect><rect x="396.23" y="73.07" width="13.77" height="284.56" transform="translate(806.23 430.69) rotate(180)" style="fill:#f0f0f0"></rect></g><g style="opacity:0.4"><rect x="307.24" y="73.07" width="7.94" height="284.56" transform="translate(622.42 430.69) rotate(180)" style="fill:#f0f0f0"></rect><rect x="304.15" y="73.07" width="6.18" height="284.56" transform="translate(614.48 430.69) rotate(180)" style="fill:#e6e6e6"></rect><rect x="299.3" y="73.07" width="7.94" height="284.56" transform="translate(606.54 430.69) rotate(180)" style="fill:#f0f0f0"></rect><rect x="296.21" y="73.07" width="6.18" height="284.56" transform="translate(598.61 430.69) rotate(180)" style="fill:#e6e6e6"></rect><rect x="291.37" y="73.07" width="7.94" height="284.56" transform="translate(590.67 430.69) rotate(180)" style="fill:#f0f0f0"></rect></g><rect x="203.14" y="233.67" width="24.56" height="141.28" transform="translate(430.84 608.62) rotate(180)" style="fill:#f0f0f0"></rect><rect x="61.75" y="374.95" width="161.24" height="7.45" transform="translate(284.74 757.35) rotate(180)" style="fill:#f0f0f0"></rect><rect x="57.03" y="233.67" width="146.11" height="141.28" style="fill:#f5f5f5"></rect><rect x="206.18" y="228.19" width="25.79" height="5.48" transform="translate(438.14 461.86) rotate(180)" style="fill:#f0f0f0"></rect><rect x="52.77" y="228.19" width="153.41" height="5.48" style="fill:#fafafa"></rect><rect x="66.69" y="292.19" width="126.79" height="27.09" style="fill:#f0f0f0"></rect><rect x="66.69" y="333.38" width="126.79" height="27.09" style="fill:#f0f0f0"></rect><rect x="97.91" y="289.55" width="64.36" height="5.29" rx="2.18" transform="translate(260.17 584.39) rotate(180)" style="fill:#f5f5f5"></rect><rect x="66.69" y="250.93" width="126.79" height="27.09" style="fill:#f0f0f0"></rect><rect x="97.91" y="248.28" width="64.36" height="5.29" rx="2.18" transform="translate(260.17 501.86) rotate(180)" style="fill:#f5f5f5"></rect><rect x="97.91" y="331.12" width="64.36" height="5.29" rx="2.18" transform="translate(260.17 667.53) rotate(-180)" style="fill:#f5f5f5"></rect><rect x="62.94" y="73.66" width="71.81" height="92.6" transform="translate(197.68 239.93) rotate(180)" style="fill:#e6e6e6"></rect><rect x="57.64" y="73.66" width="75.33" height="92.6" transform="translate(190.62 239.93) rotate(180)" style="fill:#f5f5f5"></rect><rect x="63.74" y="79.76" width="63.14" height="80.41" style="fill:#fff"></rect><path d="M81,114.76c2.12-4.52,9.64-10.89,10.43-13s-.2-7.62,1.44-8.4c4.05-1.94,7,3.47,6.82,7.87a67.85,67.85,0,0,1-.81,7.92l15.24,1.41h1.72a3.83,3.83,0,0,1,3.89,3.86A3.72,3.72,0,0,1,116,118h.18a3.82,3.82,0,0,1,3.88,3.85,3.72,3.72,0,0,1-3.71,3.58h-1.7a3.72,3.72,0,0,1,3.69,4.19h0a3.72,3.72,0,0,1-3.69,3.25h-2.75a3.72,3.72,0,0,1,3.61,4.63,3.81,3.81,0,0,1-3.72,2.8H90.13A22.57,22.57,0,0,1,78,136.71l-.37-.24A2.9,2.9,0,0,1,76.27,134v-16a2.91,2.91,0,0,1,2.37-2.86Z" style="fill:#e6e6e6"></path><rect x="63.74" y="120.38" width="12.53" height="11.31" transform="translate(140.01 252.08) rotate(180)" style="fill:#f0f0f0"></rect><rect x="160.22" y="107.94" width="71.81" height="92.6" transform="translate(392.26 308.49) rotate(180)" style="fill:#e6e6e6"></rect><rect x="154.93" y="107.94" width="75.33" height="92.6" style="fill:#f5f5f5"></rect><rect x="161.03" y="114.04" width="63.14" height="80.41" style="fill:#fff"></rect><path d="M206.9,149c-2.12-4.51-9.64-10.88-10.43-13s.2-7.61-1.44-8.39c-4.05-1.95-6.95,3.47-6.82,7.86a67.81,67.81,0,0,0,.81,7.93l-15.24,1.41h-1.73a3.82,3.82,0,0,0-3.88,3.86,3.72,3.72,0,0,0,3.72,3.57h-.18a3.82,3.82,0,0,0-3.88,3.86,3.72,3.72,0,0,0,3.71,3.58h1.7a3.72,3.72,0,0,0-3.69,4.19h0a3.71,3.71,0,0,0,3.69,3.24H176a3.73,3.73,0,0,0-3.61,4.64,3.81,3.81,0,0,0,3.72,2.8h21.67A22.58,22.58,0,0,0,209.93,171l.37-.24a2.92,2.92,0,0,0,1.34-2.45v-16a2.91,2.91,0,0,0-2.37-2.86Z" style="fill:#e6e6e6"></path><rect x="211.64" y="154.66" width="12.53" height="11.31" style="fill:#f0f0f0"></rect></g><g id="freepik--Shadow--inject-40"><ellipse id="freepik--path--inject-40" cx="250" cy="416.24" rx="193.89" ry="11.32" style="fill:#f5f5f5"></ellipse></g><g id="freepik--interaction-design--inject-40"><path d="M264.57,298.9H205.45a12,12,0,0,1-12.1-13.39l6.15-63.88a15.13,15.13,0,0,1,14.68-13.39h59.11a12,12,0,0,1,12.1,13.39l-6.15,63.88A15.12,15.12,0,0,1,264.57,298.9Z" style="fill:#fff"></path><path d="M264.57,299.45H205.45a12.53,12.53,0,0,1-12.65-14L199,221.57a15.66,15.66,0,0,1,15.23-13.89h59.11a12.61,12.61,0,0,1,9.47,4.1,12.74,12.74,0,0,1,3.19,9.9l-6.16,63.89A15.64,15.64,0,0,1,264.57,299.45ZM214.18,208.8a14.51,14.51,0,0,0-14.12,12.88l-6.15,63.89a11.43,11.43,0,0,0,11.54,12.77h59.12a14.5,14.5,0,0,0,14.11-12.88l6.16-63.89a11.66,11.66,0,0,0-2.9-9,11.51,11.51,0,0,0-8.65-3.73Z" style="fill:#04A8FC"></path><path d="M263.42,265.23l-6.55-16.12-2.18-5.37a3.77,3.77,0,0,0-4.83-2,4.47,4.47,0,0,0-2.86,5.71l-1.1-2.71a3.76,3.76,0,0,0-4.82-2h0a4.48,4.48,0,0,0-2.86,5.71l-7.33-18a3.77,3.77,0,0,0-4.83-2,4.46,4.46,0,0,0-2.85,5.71l.58,1.43a3.77,3.77,0,0,0-4.83-2,4.46,4.46,0,0,0-2.85,5.71l7,17.14,4.69,15.88a12.58,12.58,0,0,1-4.67,0c-4.71-.77-11.28,1.63-10.18,6.33.44,1.91,6.57,1.61,8.71,2.78s13.58,5.74,19.09,5.59a3.55,3.55,0,0,0,3.95.6l17.16-8.23a3.56,3.56,0,0,0,1.85-2.12A17.13,17.13,0,0,0,263.42,265.23Z" style="fill:#04A8FC"></path><path d="M264.84,233.49a.39.39,0,0,1-.15,0l-19.32-5.6a.56.56,0,0,1,.31-1.07L265,232.4a.57.57,0,0,1,.38.69A.55.55,0,0,1,264.84,233.49Z" style="fill:#263238"></path><polygon points="247.39 224.4 240.91 226 245.53 230.81 247.39 224.4" style="fill:#263238"></polygon><path d="M392.53,347h-88a12,12,0,0,1-12.09-13.39l17-176.73a15.11,15.11,0,0,1,14.67-13.38h88a12,12,0,0,1,12.09,13.38l-17,176.73A15.12,15.12,0,0,1,392.53,347Z" style="fill:#fff"></path><path d="M392.52,347.58h-88a12.54,12.54,0,0,1-12.65-14l17-176.73A15.66,15.66,0,0,1,324.12,143h88a12.54,12.54,0,0,1,12.65,14l-17,176.73A15.66,15.66,0,0,1,392.52,347.58Zm-68.4-203.5A14.51,14.51,0,0,0,310,157L293,333.69a11.59,11.59,0,0,0,2.9,9,11.47,11.47,0,0,0,8.64,3.73h88a14.51,14.51,0,0,0,14.12-12.88l17-176.73a11.41,11.41,0,0,0-11.54-12.77Z" style="fill:#04A8FC"></path><polygon points="320.85 347.02 305.56 347.02 354.6 143.52 369.88 143.52 320.85 347.02" style="fill:#04A8FC;opacity:0.1"></polygon><polygon points="347.39 347.02 325.83 347.02 374.86 143.52 396.42 143.52 347.39 347.02" style="fill:#04A8FC;opacity:0.1"></polygon><path d="M347.23,340.26a5.91,5.91,0,0,1-6-6.62,7.33,7.33,0,0,1,7.14-6.51,5.94,5.94,0,0,1,4.48,1.93,6,6,0,0,1,1.5,4.69A7.33,7.33,0,0,1,347.23,340.26Zm1.16-12a6.19,6.19,0,0,0-6,5.51,4.93,4.93,0,0,0,1.21,3.83,4.87,4.87,0,0,0,3.66,1.56,6.2,6.2,0,0,0,6-5.5,4.9,4.9,0,0,0-1.22-3.83A4.84,4.84,0,0,0,348.39,328.24Z" style="fill:#04A8FC"></path><path d="M388.06,347.58v-1.12a14.51,14.51,0,0,0,14.12-12.88l17-176.73a11.67,11.67,0,0,0-2.9-9,11.53,11.53,0,0,0-8.65-3.72V143a12.6,12.6,0,0,1,9.47,4.09,12.77,12.77,0,0,1,3.19,9.91l-17,176.73A15.66,15.66,0,0,1,388.06,347.58Z" style="fill:#04A8FC"></path><path d="M326.2,192.22H267.08A12,12,0,0,1,255,178.83L261.14,115a15.12,15.12,0,0,1,14.67-13.39h59.12A12,12,0,0,1,347,115l-6.15,63.88A15.12,15.12,0,0,1,326.2,192.22Z" style="fill:#fff"></path><path d="M326.2,192.77H267.08a12.54,12.54,0,0,1-12.65-14l6.15-63.89A15.66,15.66,0,0,1,275.81,101h59.12a12.56,12.56,0,0,1,12.65,14l-6.15,63.88A15.66,15.66,0,0,1,326.2,192.77Zm-50.39-90.65A14.52,14.52,0,0,0,261.69,115l-6.15,63.88a11.6,11.6,0,0,0,2.9,9.05,11.47,11.47,0,0,0,8.64,3.73H326.2a14.52,14.52,0,0,0,14.12-12.88l6.15-63.89a11.59,11.59,0,0,0-2.9-9,11.47,11.47,0,0,0-8.64-3.73Z" style="fill:#04A8FC"></path><path d="M296.19,129.74a6.53,6.53,0,0,1-4.94-2.13,6.61,6.61,0,0,1-1.66-5.17,8.11,8.11,0,0,1,7.89-7.2,6.53,6.53,0,0,1,6.6,7.31A8.11,8.11,0,0,1,296.19,129.74Zm1.29-13.38a7,7,0,0,0-6.78,6.19,5.42,5.42,0,0,0,5.49,6.08,7,7,0,0,0,6.78-6.19,5.42,5.42,0,0,0-5.49-6.08Z" style="fill:#263238"></path><path d="M295.76,134.21a10.52,10.52,0,0,1-10.63-11.77,13.14,13.14,0,0,1,12.78-11.66,10.61,10.61,0,0,1,8,3.43,10.73,10.73,0,0,1,2.67,8.34h0A13.15,13.15,0,0,1,295.76,134.21Zm2.15-22.31a12,12,0,0,0-11.67,10.65,9.4,9.4,0,0,0,9.52,10.54,12,12,0,0,0,11.68-10.65,9.61,9.61,0,0,0-2.39-7.48A9.5,9.5,0,0,0,297.91,111.9ZM308,122.49h0Z" style="fill:#263238"></path><path d="M320.09,141.94a4.6,4.6,0,0,0-5,4.07l.29-3a3.64,3.64,0,0,0-3.18-4.06h0a4.59,4.59,0,0,0-5,4.06l.18-1.87a3.65,3.65,0,0,0-3.18-4.07,4.6,4.6,0,0,0-5,4.07l0,.27,1.63-17a3.65,3.65,0,0,0-3.18-4.07,4.6,4.6,0,0,0-5,4.07l-1.84,19.19-3.21,17a11,11,0,0,1-3.95-2.13c-3.66-2.84-10.33-3.54-11.54,1.36-.48,2,4.87,4.46,6.15,6.51s8.95,11.48,13.7,13.81h0a3.37,3.37,0,0,0,3.21,2.34h18.18a3.44,3.44,0,0,0,2.5-1.09A19.36,19.36,0,0,0,321,170.07l1.33-13.88h0l.53-5.52.21-2.17h0l.24-2.49A3.65,3.65,0,0,0,320.09,141.94ZM306.87,146h0l.25-2.61Z" style="fill:#04A8FC"></path><path d="M367.89,249.26a24.66,24.66,0,0,0-1.53-4.8l1.63-4.05-7.23-8-4.17,1.23a24.18,24.18,0,0,0-4.6-2l-1.63-3.74H339.05l-2.35,3.74a29.36,29.36,0,0,0-5,2l-3.93-1.23-8.77,8,.85,4.05a29.31,29.31,0,0,0-2.45,4.8l-3.93,2-1.09,11.31,3.55,2a24,24,0,0,0,1.53,4.8l-1.63,4.05,7.22,8,4.17-1.24a24,24,0,0,0,4.61,2l1.62,3.74h11.31l2.35-3.74a29.83,29.83,0,0,0,5-2l3.93,1.24,8.76-8-.84-4.05a31,31,0,0,0,2.45-4.8l3.92-2,1.09-11.31Zm-27.25,20.92a11.86,11.86,0,0,1-12-13.28,15,15,0,0,1,14.57-13.29,11.86,11.86,0,0,1,12,13.29A15,15,0,0,1,340.64,270.18Z" style="fill:#04A8FC"></path><path d="M398.85,209.8l-2.58-.25a14.26,14.26,0,0,0-2-2.27h0v-2.6L388,202l-2.18,1.67h0a15.65,15.65,0,0,0-3.21,0h0L380.76,202,374,204.68l-.5,2.6a19.91,19.91,0,0,0-2.49,2.27h0l-2.63.25-3.3,6.47,1.47,2h0a17.29,17.29,0,0,0-.31,3.21l-1.86,2,2.06,6.46,2.58.25h0a14.36,14.36,0,0,0,2.05,2.27h0v2.61l6.21,2.68,2.18-1.67a15.65,15.65,0,0,0,3.21,0l1.86,1.67,6.72-2.68.5-2.61h0a17.35,17.35,0,0,0,2.49-2.27l2.63-.25,3.3-6.46-1.47-2h0a16.47,16.47,0,0,0,.31-3.21h0l1.86-2Zm-12.46,21.81c-6.73,2.68-13.85-.39-15.91-6.86s1.73-13.89,8.46-16.57,13.85.39,15.91,6.86S393.12,228.93,386.39,231.61Z" style="fill:#263238"></path></g><g id="freepik--Character--inject-40"><path d="M120.78,208.1l4.07,2.94-7.7,6A26,26,0,0,1,116,210.7a2.43,2.43,0,0,1,2.32-2.51Z" style="fill:#ff8b7b"></path><path d="M126.21,218.69l-2.31,1.64a4.11,4.11,0,0,1-6.21-1.86l-.54-1.39,7.7-6Z" style="fill:#ff8b7b"></path><path d="M181.23,155.22c1.83,4.58,3.7,9.28,5.6,13.86.94,2.3,1.93,4.57,2.91,6.81s2,4.41,3.1,6.39a22.27,22.27,0,0,0,1.53,2.48c.68.86,1.43,1.76,2.21,2.67,1.58,1.82,3.27,3.65,5,5.5,3.4,3.67,6.86,7.4,10.22,11.2L208,208.61a141.88,141.88,0,0,1-12.69-8.93c-2-1.6-4.06-3.27-6-5.08-1-.89-2-1.86-3-2.9a28.82,28.82,0,0,1-2.84-3.77A116.87,116.87,0,0,1,176,173.77c-2.13-4.76-4.07-9.49-5.86-14.4Z" style="fill:#ff8b7b"></path><path d="M219.63,210.23l.25-.68a3.93,3.93,0,0,0-1.8-4.76l-2-1.1-2.58,7.3,2.62.91A2.75,2.75,0,0,0,219.63,210.23Z" style="fill:#ff8b7b"></path><path d="M142.15,153.07c-3.08,4.63-6.24,9.28-9.4,13.88l-4.73,6.9-4.56,6.79a7.14,7.14,0,0,0-.8,2.25,28.12,28.12,0,0,0-.57,3.59c-.26,2.55-.39,5.24-.42,8-.06,5.43.08,11.05.28,16.57l-5.77.94a119.14,119.14,0,0,1-3.36-17,76.23,76.23,0,0,1-.6-8.94,42.86,42.86,0,0,1,.29-4.81,18.8,18.8,0,0,1,.5-2.67,13.66,13.66,0,0,1,.46-1.48,7.88,7.88,0,0,1,.31-.78l.41-.85.33-.6.26-.47.52-.94,1.06-1.88c.7-1.25,1.44-2.47,2.16-3.7,1.45-2.45,2.94-4.88,4.45-7.28,3-4.82,6.16-9.52,9.46-14.18Z" style="fill:#ff8b7b"></path><path d="M174.12,120.05c-.2.6,0,1.2.34,1.34s.86-.23,1.06-.82,0-1.2-.35-1.35S174.32,119.45,174.12,120.05Z" style="fill:#263238"></path><path d="M174,121.23a23.59,23.59,0,0,0,1.14,6.15c-1.36.6-3-.51-3-.51Z" style="fill:#ff5652"></path><path d="M173.21,124.62h-.16a2.62,2.62,0,0,1-2.05-1.15,5,5,0,0,1-.35-4.3c.86-2.82,3.34-5,5.45-4.91a2.61,2.61,0,0,1,2.05,1.14,5.05,5.05,0,0,1,.35,4.31C177.66,122.46,175.31,124.62,173.21,124.62Zm2.72-9.86c-1.89,0-4,2-4.8,4.55a4.56,4.56,0,0,0,.28,3.88,2.13,2.13,0,0,0,1.67.93c1.92.12,4.14-1.94,4.94-4.56a4.57,4.57,0,0,0-.28-3.87,2.13,2.13,0,0,0-1.67-.93Z" style="fill:#04A8FC"></path><path d="M176.14,116.51a.4.4,0,0,1-.2-.09,2.88,2.88,0,0,0-2.6-.45.38.38,0,0,1-.46-.26.35.35,0,0,1,.25-.45,3.63,3.63,0,0,1,3.3.61.37.37,0,0,1-.29.64Z" style="fill:#263238"></path><path d="M153.08,121.8c-1,6.34-.07,14.39-4.55,17.42,0,0,.69,6,11.1,8,11.44,2.14,6.31-4.7,6.31-4.7-6-2.67-5.17-7.31-3.43-11.49Z" style="fill:#ff8b7b"></path><path d="M145.48,140.67c-.55-2-.95-4.9,1-5.2,2.16-.33,15.6,1.11,23,5.07a7,7,0,0,0-1.15,5.58Z" style="fill:#263238"></path><path d="M100.35,404.87a8.34,8.34,0,0,1-3.06-.88.19.19,0,0,1-.1-.17.19.19,0,0,1,.12-.16c.1,0,2.47-1,3.52-.43a.88.88,0,0,1,.49.56.76.76,0,0,1-.18.87A1.24,1.24,0,0,1,100.35,404.87Zm-2.49-1c1.08.48,2.63.86,3,.52,0,0,.16-.13.06-.47a.53.53,0,0,0-.3-.34A4.93,4.93,0,0,0,97.86,403.85Z" style="fill:#04A8FC"></path><path d="M97.38,404a.19.19,0,0,1-.13-.05.18.18,0,0,1,0-.18c0-.1.67-2.25,1.7-2.76a1,1,0,0,1,.82,0,.63.63,0,0,1,.47.63c0,.89-1.91,2.17-2.76,2.4Zm2-2.73a.62.62,0,0,0-.29.07c-.66.33-1.18,1.56-1.4,2.17.89-.39,2.12-1.4,2.15-1.93,0,0,0-.18-.23-.27A.62.62,0,0,0,99.36,401.28Z" style="fill:#04A8FC"></path><path d="M168.83,408.31a13.63,13.63,0,0,1-2.4-.22.21.21,0,0,1-.15-.15.2.2,0,0,1,.09-.19c.39-.23,3.85-2.21,4.69-.84a.7.7,0,0,1,0,.81C170.78,408.17,169.82,408.31,168.83,408.31Zm-1.81-.5c1.46.21,3.44.19,3.77-.3,0,0,.11-.15,0-.41C170.27,406.33,168.17,407.21,167,407.81Z" style="fill:#04A8FC"></path><path d="M166.47,408.09a.2.2,0,0,1-.11,0,.21.21,0,0,1-.08-.16c0-.09.13-2.19,1.09-3a1.34,1.34,0,0,1,1-.33c.52.06.67.32.71.53.15.9-1.63,2.55-2.56,3Zm1.77-3.16a.92.92,0,0,0-.63.25,4.2,4.2,0,0,0-.93,2.4c.94-.57,2.14-1.87,2-2.42,0,0,0-.18-.37-.22Z" style="fill:#04A8FC"></path><polygon points="157.9 407.91 165.69 407.91 165.77 389.87 157.98 389.87 157.9 407.91" style="fill:#ff8b7b"></polygon><polygon points="88.72 401.65 96.28 403.55 103.8 386.84 96.24 384.94 88.72 401.65" style="fill:#ff8b7b"></polygon><path d="M97,402.8l-8.49-2.13a.64.64,0,0,0-.75.36l-2.92,6.41a1.18,1.18,0,0,0,.82,1.63c3,.69,4.45.88,8.18,1.82,2.3.58,7,2,10.15,2.8s4.26-2.26,3-2.88c-5.55-2.75-7.37-5.07-8.88-7.23A2,2,0,0,0,97,402.8Z" style="fill:#263238"></path><path d="M165.6,407h-8.51a.65.65,0,0,0-.64.53l-1.27,6.92a1.19,1.19,0,0,0,1.17,1.39c3.07-.05,7.5-.23,11.36-.23,4.51,0,6.35.24,11.64.24,3.19,0,4-3.23,2.61-3.52-6.15-1.34-9.06-1.48-14.46-4.73A3.71,3.71,0,0,0,165.6,407Z" style="fill:#263238"></path><path d="M139.6,138.68C132.18,139,121,157.16,121,157.16L134,169.81a116.93,116.93,0,0,0,11.93-14.52C151.5,147.07,147.19,138.36,139.6,138.68Z" style="fill:#04A8FC"></path><path d="M139.6,138.68C132.18,139,121,157.16,121,157.16L134,169.81a116.93,116.93,0,0,0,11.93-14.52C151.5,147.07,147.19,138.36,139.6,138.68Z" style="fill:#fff;opacity:0.2"></path><path d="M142.72,151.88l-9.52,17,.61.6s3.56-3.62,7.59-8.64Z" style="opacity:0.2"></path><path d="M175,181.38c-1.66,8.54-4.17,19.07-7.91,32l-41-7.68c.6-5.89,7.91-32,7.74-60.37a6.89,6.89,0,0,1,7.29-6.94c2,.12,4.27.32,6.46.62A154.54,154.54,0,0,1,165,142.3a80.06,80.06,0,0,1,11.46,4.35s2.8,4.46.52,22.45C176.5,172.65,175.86,176.72,175,181.38Z" style="fill:#04A8FC"></path><path d="M175,181.38c-1.66,8.54-4.17,19.07-7.91,32l-41-7.68c.6-5.89,7.91-32,7.74-60.37a6.89,6.89,0,0,1,7.29-6.94c2,.12,4.27.32,6.46.62A154.54,154.54,0,0,1,165,142.3a80.06,80.06,0,0,1,11.46,4.35s2.8,4.46.52,22.45C176.5,172.65,175.86,176.72,175,181.38Z" style="fill:#fff;opacity:0.30000000000000004"></path><path d="M175,181.38c-3.26-2.24-6-12.09-4.42-17.14L177,169.1C176.5,172.65,175.86,176.72,175,181.38Z" style="fill:#04A8FC;opacity:0.5"></path><path d="M166.82,151.56c-2.4,7,9.69,28.4,9.69,28.4l15.72-7.46s-3.1-10.66-8.33-19C178.05,144.24,169.52,143.65,166.82,151.56Z" style="fill:#04A8FC"></path><path d="M166.82,151.56c-2.4,7,9.69,28.4,9.69,28.4l15.72-7.46s-3.1-10.66-8.33-19C178.05,144.24,169.52,143.65,166.82,151.56Z" style="fill:#fff;opacity:0.30000000000000004"></path><polygon points="165.77 389.87 165.73 399.17 157.93 399.17 157.97 389.87 165.77 389.87" style="opacity:0.2"></polygon><polygon points="96.23 384.94 103.79 386.84 99.92 395.46 92.36 393.56 96.23 384.94" style="opacity:0.2"></polygon><path d="M154.88,111.49c-2,7.5-3.48,11.78-1.06,16.91a10.06,10.06,0,0,0,17.8,1c3.72-6,6.3-17.28.17-22.83A10.16,10.16,0,0,0,154.88,111.49Z" style="fill:#ff8b7b"></path><path d="M167.67,119c1.84.13,5.78-2.56,6-5.06,1.94-1.11,5.18-2.55,5.7-4.88s1.35-10.78-3.59-9.06-4.05-.78-8.69-1.83-5.75,1.33-9.84,1.39-2.31,4.16-2.31,4.16c-4.22-1.33-8.16,2.56-5.77,5.56s-1.71,3.13-.88,7.23,3.71,9.27.6,8.43-1.22,6,7.83,5.73S169.33,121.34,167.67,119Z" style="fill:#263238"></path><polygon points="178.18 119.87 167.73 116.44 167.88 115.97 178.34 119.4 178.18 119.87" style="fill:#04A8FC"></polygon><path d="M164.7,118a9.21,9.21,0,0,0,1,5.61c1.23,2.26,1.7,2.36,2.49.21.71-2,2.42-6.26.65-7.8S165.08,115.66,164.7,118Z" style="fill:#ff8b7b"></path><path d="M152.5,210.69S145,269.27,141,291.57c-4.37,24.43-37.23,103-37.23,103L90,391.1s25.68-73.13,27.78-97.31c2.28-26.25,3.93-69.39,8.32-88.06Z" style="fill:#263238"></path><path d="M107.1,390c.06,0-2.56,5-2.56,5L89,391.08l1.3-4.72Z" style="fill:#04A8FC"></path><path d="M147.48,232a3.58,3.58,0,0,1,1.34,0c-2,18.26-5,42.64-7.26,56.59C139.65,268.28,137.87,233.89,147.48,232Z" style="opacity:0.2"></path><path d="M167,213.41S171,268,171,291.74c.07,24.71-2.46,105.63-2.46,105.63h-13.2s-6.53-79.48-8.05-103.75c-1.66-26.46-7.2-85.26-7.2-85.26Z" style="fill:#263238"></path><path d="M207.73,205.71l1-1.54a13.84,13.84,0,0,1,7.68-.39L213.51,211l-4.57-1.65A2.43,2.43,0,0,1,207.73,205.71Z" style="fill:#ff8b7b"></path><path d="M170.9,392.11c.06,0-.53,5.48-.53,5.48H154.31l-.62-4.89Z" style="fill:#04A8FC"></path></g></svg>